# xmcd
#
# Track frame offsets: 
#        150
#        8230
#        21720
#        37207
#        50532
#        60797
#        77522
#        91302
#        111425
#        131765
#        143602
#        159225
#        172942
#        189592
#        199947
#        205947
#
# Disc length: 2954 seconds
#
# Revision: 0
# Processed by: cddbd v1.5.2PL0 Copyright (c) Steve Scherf et al.
# Submitted via: ExactAudioCopyFreeDBPlugin 1.0
#
DISCID=d80b8810
DTITLE=Various Artist - Australia All Over Number 4
DYEAR=1990
DGENRE=Country
TTITLE0=Michael O'Sullivan - Ring Macca
TTITLE1=Ian McNamara - A Hundred Tons of Washing
TTITLE2=Ian McNamara - Rainbows and Butterflies
TTITLE3=International Novelty Quartet - Silver Bell
TTITLE4=Ian McNamara - Did You See the Gypsies
TTITLE5=The Purple Dentists - St. Kilda Nights
TTITLE6=Alan Scott - Shoulda' Been a Champion
TTITLE7=Ian McNamara And Michael O'Sullivan - I Lobster But I Never Fl
TTITLE7=ounder
TTITLE8=Ken Flannery And The Port Jackson Jazz Band - Take Me Back Med
TTITLE8=ley
TTITLE9=Michael O'Sullivan - Rabbit Trapper
TTITLE10=Noel Murphy - Murphy and the Bricks
TTITLE11=Harry And Wilga Williams and The 'Country Outcasts' - Blue Gums
TTITLE11=Calling Me Back Home
TTITLE12=Bob Barnard's Jazz Band - A Town Like Alice
TTITLE13=Tony Miles And Rantan - Queensland Railway Line
TTITLE14=Drummond 'Wattle' Singers - Song of the Wattle
TTITLE15=Ian McNamara - Last of the Riverboats
EXTD=
EXTT0=
EXTT1=
EXTT2=
EXTT3=
EXTT4=
EXTT5=
EXTT6=
EXTT7=
EXTT8=
EXTT9=
EXTT10=
EXTT11=
EXTT12=
EXTT13=
EXTT14=
EXTT15=
PLAYORDER=
